<?xml version="1.0" encoding="utf-8"?>
<svg version="1.1" id="Layer_1" xmlns="http://www.w3.org/2000/svg" xmlns:xlink="http://www.w3.org/1999/xlink" x="0px" y="0px"
	 viewBox="0 0 554 202" style="enable-background:new 0 0 554 202;" xml:space="preserve">
<style type="text/css">
	.st0{stroke:#000000;stroke-width:4;stroke-miterlimit:10;}
	.st1{fill:#FFC22D;stroke:#000000;stroke-width:1.0285673;stroke-miterlimit:10;}
	.st2{fill:#FFC22D;stroke:#000000;stroke-width:1.0116333;stroke-miterlimit:10;}
</style>
<g id="Sinclair">
	<path class="st0" d="M2.8499937,73.9800797V63.4120293c0-0.0088234,0.0071511-0.0159721,0.0159726-0.0159721h82.4680557
		c0.0088196,0,0.015976-0.0071526,0.015976-0.0159721V51.4120293c0-0.0088234-0.0071564-0.0159721-0.015976-0.0159721H2.8659663
		c-0.0088215,0-0.0159726-0.0071526-0.0159726-0.0159721V18.4120293c0-0.0088215,0.0071511-0.015974,0.0159726-0.015974h93.6680527
		c0.0088196,0,0.015976,0.0071526,0.015976,0.015974v10.4680538c0,0.0088215-0.0071564,0.0159721-0.015976,0.0159721H14.0659676
		c-0.0088215,0-0.0159731,0.0071526-0.0159731,0.015974V40.880085c0,0.0088196,0.0071516,0.0159721,0.0159731,0.0159721h82.4680481
		c0.0088196,0,0.015976,0.0071487,0.015976,0.0159721v33.0680504c0,0.0088272-0.0071564,0.015976-0.015976,0.015976H2.8659663
		C2.8571448,73.9960556,2.8499937,73.9889069,2.8499937,73.9800797z"/>
	<path class="st0" d="M103.3659668,73.9960556c-0.0088196,0-0.0159683-0.0071487-0.0159683-0.015976V46.3960571V19.2120304
		c0-0.0088215,0.0071487-0.015974,0.0159683-0.015974h11.1680527c0.0088196,0,0.015976,0.0071526,0.015976,0.015974v27.1840267
		v27.5840225c0,0.0088272-0.0071564,0.015976-0.015976,0.015976H103.3659668z"/>
	<path class="st0" d="M120.6499939,73.9800797V19.2120304c0-0.0088215,0.0071487-0.015974,0.0159683-0.015974h93.6680527
		c0.0088196,0,0.015976,0.0071526,0.015976,0.015974v54.7680511c0,0.0088272-0.0071564,0.015976-0.015976,0.015976h-11.168045
		c-0.0088348,0-0.015976-0.0071487-0.015976-0.015976V29.7120323c0-0.0088215-0.0071564-0.015974-0.015976-0.015974h-71.2680511
		c-0.0088348,0-0.015976,0.0071526-0.015976,0.015974v44.2680473c0,0.0088272-0.0071564,0.015976-0.015976,0.015976h-11.1680527
		C120.6571426,73.9960556,120.6499939,73.9889069,120.6499939,73.9800797z"/>
	<path class="st0" d="M220.3499908,73.9800797V19.2120304c0-0.0088215,0.0071411-0.015974,0.015976-0.015974h93.7680664
		c0.0088196,0,0.0159607,0.0071526,0.0159607,0.015974v10.4680557c0,0.0088215-0.0071411,0.0159721-0.0159607,0.0159721h-82.4680481
		c-0.0088348,0-0.015976,0.0071526-0.015976,0.015974v33.7680511c0,0.0088196,0.0071411,0.0159721,0.015976,0.0159721h82.4680481
		c0.0088196,0,0.0159607,0.0071487,0.0159607,0.0159721v10.4680519c0,0.0088272-0.0071411,0.015976-0.0159607,0.015976h-93.7680664
		C220.357132,73.9960556,220.3499908,73.9889069,220.3499908,73.9800797z"/>
	<path class="st0" d="M321.6499939,73.9960556V38.2960587V2.7120302c0-0.0088212,0.0071716-0.0159726,0.0159912-0.0159726
		h11.1680603c0.0088196,0,0.0159607,0.0071514,0.0159607,0.0159726v35.6840324v35.6840248
		c0,0.0088272-0.0071411,0.015976-0.0159607,0.015976h-11.1840515V73.9960556z"/>
	<path class="st0" d="M439.3659668,73.9960556c-0.0088196,0-0.0159912-0.0071487-0.0159912-0.015976V46.5960579V19.2120304
		c0-0.0088215,0.0071716-0.015974,0.0159912-0.015974h11.2680359c0.0088196,0,0.0159607,0.0071526,0.0159607,0.015974v27.3840275
		v27.3840218c0,0.0088272-0.0071411,0.015976-0.0159607,0.015976H439.3659668z"/>
	<path class="st0" d="M457.4499817,73.9960556V19.2120304c0-0.0088215,0.0071716-0.015974,0.0159912-0.015974h93.6680603
		c0.0088501,0,0.0159912,0.0071526,0.0159912,0.015974v10.4680557c0,0.0088215-0.0071411,0.0159721-0.0159912,0.0159721h-82.4680481
		c-0.0088196,0-0.0159912,0.0071526-0.0159912,0.015974v44.2680473c0,0.0088272-0.0071411,0.015976-0.0159607,0.015976H457.4499817
		L457.4499817,73.9960556z"/>
	<path class="st0" d="M338.8499756,19.2120304v10.4680557c0,0.0088215,0.0071716,0.0159721,0.0159912,0.0159721h82.4680481
		c0.0088196,0,0.0159607,0.0071526,0.0159607,0.015974V41.680088c0,0.0088196-0.0071411,0.0159721-0.0159607,0.0159721h-82.4680481
		c-0.0088196,0-0.0159912,0.0071487-0.0159912,0.0159721v32.2680473c0,0.0088272,0.0071716,0.015976,0.0159912,0.015976h93.7680664
		c0.0088196,0,0.0159607-0.0071487,0.0159607-0.015976V19.2120304c0-0.0088215-0.0071411-0.015974-0.0159607-0.015974h-93.7680664
		C338.8571472,19.1960564,338.8499756,19.2032089,338.8499756,19.2120304z M421.3499756,63.3960571h-71.1839905
		c-0.0088196,0-0.0159912-0.0071526-0.0159912-0.0159721v-5.9840279v-5.9840279
		c0-0.0088234,0.0071716-0.0159721,0.0159912-0.0159721h71.1680603c0.0088196,0,0.0159607,0.0071487,0.0159607,0.0159721v5.9840279
		v6H421.3499756z"/>
	<path class="st0" d="M103.3499985,7.8960571V2.7120302c0-0.0088212,0.0071487-0.0159726,0.0159683-0.0159726h11.1680527
		c0.0088196,0,0.015976,0.0071514,0.015976,0.0159726v5.2840281v5.2840261c0,0.0088215-0.0071564,0.0159731-0.015976,0.0159731
		h-11.1680527c-0.0088196,0-0.0159683-0.0071516-0.0159683-0.0159731V7.8960571z"/>
	<path class="st0" d="M439.3499756,7.8960571V2.7120302c0-0.0088212,0.0071716-0.0159726,0.0159912-0.0159726h11.2680359
		c0.0088196,0,0.0159607,0.0071514,0.0159607,0.0159726v5.2840281v5.2840261c0,0.0088215-0.0071411,0.0159731-0.0159607,0.0159731
		h-11.2680359c-0.0088196,0-0.0159912-0.0071516-0.0159912-0.0159731V7.8960571z"/>
</g>
<g id="ZX80">
	<path class="st1" d="M1.4434675,178.2300873v22.5595703h126.9515076h23.4887848h14.1738434l37.8744354-38.2402344
		l38.2980194,38.2402344h37.8744354l-56.9175415-57.1201172l55.6488342-56.6396484h-37.663681l-37.2400665,37.2797852
		L166.6929932,87.029892h-14.8092346h-22.8544312H1.4434675v22.5595703h104.1022491L1.4434675,178.2300873z
		 M151.3532867,177.7496185H47.1466293l104.4718552-67.9875488l33.6940308,33.9074707L151.3532867,177.7496185z"/>
	<path class="st2" d="M547.3096924,110.7896576c-2.7313843-4.8525391-6.4481812-9.0649414-11.1554565-12.6401367
		c-4.7072754-3.5722656-10.1320801-6.3447266-16.2724609-8.3198242c-6.1404419-1.9726562-12.6226501-2.9599609-19.4446716-2.9599609
		h-43.8013916c-6.8250122,0-13.3392029,0.9873047-19.5465698,2.9599609
		c-6.2113647,1.9750977-11.6351929,4.7475586-16.2724915,8.3198242c-4.6402893,3.5751953-8.3241272,7.7875977-11.0525513,12.6401367
		c-2.7313843,4.8549805-4.0935974,10.1601562-4.0935974,15.9199219v20.7417603
		c-1.5223694-1.7913818-3.2260437-3.479248-5.1140137-5.0615845c-1.3662109-0.8525391-2.6964111-1.7050781-3.9916687-2.5600586
		c-1.2982483-0.8525391-2.6964111-1.6523438-4.1955566-2.3999023c3.9556885-3.0927734,7.1278381-6.425293,9.5174561-10
		c2.3855896-3.5727539,3.5819092-7.6000977,3.5819092-12.0800781c0-3.8398438-0.9564514-7.4926758-2.8653259-10.9599609
		c-1.9129028-3.465332-4.5033875-6.5048828-7.7784729-9.1201172c-3.2750854-2.6123047-7.1318054-4.6650391-11.5642395-6.1601562
		c-4.4353943-1.4921875-9.1786194-2.2397461-14.2256775-2.2397461h-58.3338928
		c-5.0490723,0-9.7922974,0.7475586-14.2247009,2.2397461c-4.4364014,1.4951172-8.2901611,3.5478516-11.5642395,6.1601562
		c-3.2750854,2.6152344-5.8685608,5.6547852-7.7784424,9.1201172c-1.9118958,3.4672852-2.8653259,7.1201172-2.8653259,10.9599609
		s0.9534302,7.5200195,2.8653259,11.0400391c1.9098816,3.5200195,4.5703125,6.6147461,7.9823303,9.2797852
		c0.4097595,0.3203125,0.8864746,0.6674805,1.4331665,1.0400391c0.5436707,0.375,1.023407,0.6152344,1.4331665,0.7202148
		c-1.5031433,0.9599609-2.9013062,1.8149414-4.1965637,2.5600586c-1.2982483,0.7470703-2.6284485,1.5473633-3.9906616,2.3999023
		c-3.8217773,3.199707-6.8919678,6.8276367-9.2106018,10.8803711c-2.3226624,4.0546875-3.4799805,8.4794922-3.4799805,13.2792969
		c0,4.9082031,1.1932983,9.4677734,3.5819092,13.6806641c2.3855896,4.2148438,5.5937195,7.8398438,9.6203613,10.8798828
		c4.0226746,3.0400391,8.6629639,5.4150391,13.9178772,7.1201172c5.250946,1.7070312,10.7457275,2.5595703,16.4763794,2.5595703
		h58.9485474c5.7306519,0,11.2574158-0.8798828,16.5792847-2.6396484c5.3208923-1.7607422,9.9581909-4.1601562,13.9178772-7.2001953
		c3.9556885-3.0400391,7.1288452-6.640625,9.5174255-10.7998047c0.35849-0.6251831,0.6811218-1.2615967,0.9858704-1.9035645
		c2.5444641,4.1459351,5.8282166,7.7936401,9.8598022,10.9436035c4.570343,3.5742188,9.9591675,6.3994141,16.1695557,8.4794922
		c6.2073669,2.0800781,12.8594666,3.1201172,19.9563293,3.1201172h43.8013916
		c7.0938721,0,13.7140198-1.0400391,19.8544006-3.1201172c6.1404419-2.0800781,11.5292358-4.9052734,16.1695557-8.4794922
		c4.6372681-3.5732422,8.2901611-7.7851562,10.9506226-12.640625c2.6604004-4.8525391,3.9916382-10.0527344,3.9916382-15.5996094
		v-34.2402344C551.4033203,120.9498138,550.0371094,115.6446381,547.3096924,110.7896576z M310.7010193,109.9097748
		c19.4446411,0,38.8892517,0,58.3338928,0c2.046814,0,3.7867737,0.5073242,5.2199402,1.5200195
		c1.4321594,1.0146484,2.1487427,2.3198242,2.1487427,3.9199219c0,1.7075195-0.6486206,3.0947266-1.9438477,4.1601562
		c-1.2992554,1.0673828-3.1062012,1.5996094-5.4248352,1.5996094h-58.3338928c-2.046814,0-3.7538147-0.5600586-5.1170044-1.6796875
		c-0.8627014-0.7078247-1.4524231-1.5113754-1.7696838-2.4107819c-0.0568237-0.1610794-0.2676392-0.8010864-0.2771301-1.6692963
		c0-0.0000992-0.0121155-1.1088715,0.4097595-2.1601562C304.5586548,111.6652832,307.1651306,110.0715256,310.7010193,109.9097748z
		 M379.8835754,174.5494232c-2.7314148,2.4550781-6.1404114,3.6806641-10.2340088,3.6806641h-58.9485474
		c-1.6370544,0-3.3100891-0.2929688-5.0140686-0.8808594c-1.7080078-0.5849609-3.243103-1.3847656-4.6053162-2.3994141
		c-1.3662109-1.0126953-2.4915466-2.2402344-3.3770142-3.6796875c-0.8894958-1.4404297-1.3312378-3.0126953-1.3312378-4.7207031
		c0-2.984375,1.3981934-5.625,4.1965637-7.9199219c2.7953491-2.2919922,6.1723633-3.4394531,10.131073-3.4394531h58.9485474
		c2.4555664,0,4.5703125,0.375,6.3452759,1.1191406c1.7709656,0.7480469,3.2391052,1.6806641,4.4004211,2.8007812
		c1.1573486,1.1201172,2.046814,2.3476562,2.6604614,3.6796875c0.614624,1.3349609,0.9214478,2.5878906,0.9214478,3.7597656
		C383.9771729,169.7496185,382.6109924,172.4175873,379.8835754,174.5494232z M522.5432129,160.9498138
		c0,2.2402344-0.5827026,4.375-1.7399902,6.3994141c-1.1613159,2.0283203-2.7314453,3.8154297-4.7072754,5.3603516
		c-1.9798584,1.5478516-4.3334656,2.7753906-7.0618591,3.6796875c-2.7314148,0.9082031-5.5967407,1.3603516-8.5969849,1.3603516
		h-43.8013916c-6.2773438,0-11.4303284-1.625-15.4529724-4.8798828c-4.0266418-3.2529297-6.0384521-7.2246094-6.0384521-11.9199219
		v-34.2402344c0-4.7998047,2.0467834-8.7998047,6.1404114-12c2.0467834-1.6000977,4.3304443-2.8798828,6.8569641-3.8398438
		c2.5235291-0.9599609,5.3538818-1.4399414,8.4940491-1.4399414h43.8013916c2.866333,0,5.6287231,0.4799805,8.2901611,1.4399414
		c2.6604309,0.9599609,5.0140686,2.2397461,7.0608826,3.8398438s3.6848145,3.4399414,4.913147,5.5200195
		c1.2272339,2.0800781,1.8419189,4.2402344,1.8419189,6.4799805V160.9498138z"/>
</g>
</svg>
